# Blender v2.76 (sub 0) OBJ File: 'lamppost.blend'
# www.blender.org
mtllib light.mtl
o Circle_Circle.002
v 1.035133 20.811792 -1.047301
v 0.752290 18.811792 -0.764458
v 1.045183 18.811792 -0.057351
v 1.445183 20.811792 -0.057351
v 0.752290 18.811792 0.649755
v 1.035133 20.811792 0.932598
v 0.045183 18.811792 0.942648
v 0.045183 20.811792 1.342648
v -0.661924 18.811792 0.649755
v -0.944766 20.811792 0.932598
v -0.954817 18.811792 -0.057352
v -1.354817 20.811792 -0.057352
v -0.661924 18.811792 -0.764458
v -0.944766 20.811792 -1.047301
v 0.045183 18.811792 -1.057352
v 0.045183 20.811792 -1.457352
v 0.783153 22.906055 -0.057350
v 0.045183 22.906055 -0.057350
v 0.567007 22.906055 -0.579174
v 0.567007 22.906055 0.464473
v 0.045183 22.906055 0.680620
v -0.476640 22.906055 0.464473
v -0.692787 22.906055 -0.057351
v -0.476640 22.906055 -0.579174
v 0.045183 22.906055 -0.795320
v 0.960849 18.811792 -1.047301
v -0.029100 18.811792 -1.457352
v 0.960849 18.811792 0.932598
v -0.029100 18.811792 1.342648
v 1.370900 18.811792 -0.057351
v -1.019050 18.811792 -1.047301
v -1.429100 18.811792 -0.057352
v -1.019050 18.811792 0.932598
v 2.145183 20.811792 -0.057351
v 1.530107 20.811792 -1.542276
v 1.530107 20.811792 1.427573
v 0.045183 20.811792 2.042648
v -1.439741 20.811792 1.427573
v -2.054817 20.811792 -0.057352
v -1.439741 20.811792 -1.542276
v 0.045183 20.811792 -2.157351
v 0.639153 22.811792 -0.651320
v 0.885183 22.811792 -0.057350
v 0.639153 22.811792 0.536619
v 0.045183 22.811792 0.782650
v -0.548787 22.811792 0.536619
v -0.794817 22.811792 -0.057351
v -0.548786 22.811792 -0.651320
v 0.045183 22.811792 -0.897350
v 0.698550 22.904850 -0.710717
v 0.969183 22.904850 -0.057350
v 0.698550 22.904850 0.596016
v 0.045183 22.904850 0.866650
v -0.608184 22.904850 0.596016
v -0.878817 22.904850 -0.057351
v -0.608184 22.904850 -0.710717
v 0.045183 22.904850 -0.981350
v 0.626169 23.011791 -0.638336
v 0.866820 23.011791 -0.057350
v 0.626169 23.011791 0.523635
v 0.045183 23.011791 0.764287
v -0.535802 23.011791 0.523635
v -0.776454 23.011791 -0.057351
v -0.535802 23.011791 -0.638336
v 0.045183 23.011791 -0.878988
v 2.209618 20.735527 -0.057351
v 1.575670 20.735527 -1.587838
v 1.575670 20.735527 1.473135
v 0.045183 20.735527 2.107084
v -1.485304 20.735527 1.473135
v -2.119252 20.735527 -0.057352
v -1.485304 20.735527 -1.587838
v 0.045183 20.735527 -2.221787
v 2.147183 20.675762 -0.057351
v 1.531522 20.675762 -1.543690
v 1.531522 20.675762 1.428987
v 0.045183 20.675762 2.044649
v -1.441155 20.675762 1.428987
v -2.056818 20.675762 -0.057352
v -1.441155 20.675762 -1.543690
v 0.045183 20.675762 -2.159352
v 2.104982 20.735527 -0.057351
v 1.501681 20.735527 -1.513849
v 1.501681 20.735527 1.399147
v 0.045183 20.735527 2.002448
v -1.411315 20.735527 1.399146
v -2.014617 20.735527 -0.057352
v -1.411315 20.735527 -1.513850
v 0.045183 20.735527 -2.117151
v 0.938230 18.884750 -1.016625
v 1.335574 18.884750 -0.057351
v 0.938230 18.884750 0.901922
v -0.021044 18.884750 1.299267
v -0.980318 18.884750 0.901922
v -1.377662 18.884750 -0.057352
v -0.980318 18.884750 -1.016626
v -0.021044 18.884750 -1.413970
v -0.031557 18.957708 -1.470578
v 0.967745 18.957708 -1.056653
v 0.967745 18.957708 0.941950
v -0.031557 18.957708 1.355875
v 1.381670 18.957708 -0.057351
v -1.030858 18.957708 -1.056653
v -1.444783 18.957708 -0.057352
v -1.030859 18.957708 0.941950
v 0.988719 18.878670 -1.085098
v 1.414426 18.878670 -0.057351
v 0.988719 18.878670 0.970395
v -0.039027 18.878670 1.396101
v -1.066773 18.878670 0.970395
v -1.492480 18.878670 -0.057352
v -1.066773 18.878670 -1.085098
v -0.039027 18.878670 -1.510804
v -0.029100 18.211792 -1.457352
v 0.960849 18.211792 -1.047301
v 0.960849 18.211792 0.932598
v -0.029100 18.211792 1.342648
v 1.370900 18.211792 -0.057351
v -1.429100 18.211792 -0.057352
v -1.019050 18.211792 -1.047301
v -1.019050 18.211792 0.932598
v 0.760870 18.211792 -0.057351
v 0.529493 18.211792 0.501242
v -0.029100 18.211792 0.732619
v -0.587694 18.211792 0.501242
v -0.029100 18.211792 -0.847322
v 0.529493 18.211792 -0.615945
v -0.819071 18.211792 -0.057352
v -0.587694 18.211792 -0.615945
v -0.819071 0.828409 -0.057355
v -0.587694 0.828409 -0.615948
v 0.760870 0.828409 -0.057354
v 0.529493 0.828409 0.501239
v -0.029100 0.828409 -0.847325
v 0.529493 0.828409 -0.615948
v -0.587694 0.828409 0.501239
v -0.029100 0.828409 0.732616
v -0.029100 0.828411 1.560550
v -1.173132 0.828411 1.086677
v -1.647005 0.828411 -0.057355
v -1.173132 0.828411 -1.201386
v 1.588804 0.828411 -0.057354
v 1.114931 0.828411 1.086677
v -0.029100 0.828411 -1.675259
v 1.114931 0.828411 -1.201386
v -1.173132 -0.233669 1.086677
v -1.647005 -0.233669 -0.057355
v 1.114931 -0.233669 -1.201386
v 1.588804 -0.233669 -0.057354
v 1.114931 -0.233669 1.086677
v -0.029100 -0.233669 1.560550
v -1.173132 -0.233669 -1.201386
v -0.029100 -0.233669 -1.675259
vt 1.747395 0.989023
vt 1.766186 0.013248
vt 0.744817 0.403956
vt 0.771736 0.594586
vt 0.596261 0.287550
vt 1.073168 -0.732741
vt 0.019900 -0.774441
vt 0.416954 0.308341
vt 0.314002 0.445965
vt -0.770838 -0.025287
vt 0.349157 0.612011
vt -0.770838 1.102891
vt 0.465385 0.739617
vt 0.068637 1.774441
vt 1.101202 1.771060
vt 0.636289 0.727201
vt 0.498112 0.912219
vt 0.616139 0.912219
vt 0.380084 0.912219
vt 0.331196 0.912219
vt 0.665027 0.912219
vt 0.835083 0.220726
vt 0.968626 0.220726
vt 0.838479 0.220726
vt 0.739520 0.220726
vt 0.261703 0.220726
vt 0.162744 0.220726
vt 0.027597 0.220726
vt 0.166140 0.220726
vt 0.500612 0.220726
vt 0.498112 0.438534
vt 0.722021 0.438534
vt 0.833975 0.438534
vt 0.274203 0.438534
vt 0.162248 0.438534
vt 0.025629 0.438534
vt 0.181456 0.438534
vt 0.965594 0.438534
vt 0.814767 0.438534
vt 0.632457 0.890898
vt 0.498112 0.890898
vt 0.363766 0.890898
vt 0.310618 0.890898
vt 0.680605 0.890898
vt 0.645891 0.911947
vt 0.498112 0.911947
vt 0.350332 0.911947
vt 0.291619 0.911947
vt 0.699604 0.911947
vt 0.629520 0.932858
vt 0.498112 0.932858
vt 0.366703 0.932858
vt 0.314772 0.932858
vt 0.676451 0.932858
vt 0.498112 0.421284
vt 0.844280 0.421284
vt 0.151943 0.421284
vt 0.011055 0.421284
vt 0.980168 0.421284
vt 0.498111 0.407767
vt 0.834295 0.407767
vt 0.161928 0.407767
vt 0.025176 0.407767
vt 0.966047 0.407767
vt 0.827546 0.421284
vt 0.168678 0.421284
vt 0.032221 0.421284
vt 0.956502 0.421284
vt 0.500612 0.245376
vt 0.824719 0.245376
vt 0.176504 0.245376
vt 0.042254 0.245376
vt 0.958969 0.245376
vt 0.838243 0.270027
vt 0.968901 0.270027
vt 0.031517 0.270027
vt 0.162980 0.270027
vt 0.500612 0.270027
vt 0.500612 0.243322
vt 0.847854 0.243322
vt 0.153369 0.243322
vt 0.009537 0.243322
vt 0.986686 0.243322
vt 0.835083 0.018005
vt 0.968626 0.018005
vt 0.027597 0.018005
vt 0.166140 0.018005
vt 0.500612 0.018005
vn 0.908500 -0.181700 -0.376300
vn 0.561700 -0.671000 -0.484000
vn 0.562300 0.040500 -0.825900
vn 0.739400 -0.671100 0.054900
vn 0.981600 0.040500 -0.186400
vn 0.908500 -0.181700 0.376300
vn 0.825900 0.040500 0.562300
vn 0.376300 -0.181700 0.908500
vn 0.484000 -0.671000 0.561700
vn -0.055000 -0.671100 0.739300
vn 0.186400 0.040500 0.981600
vn -0.376300 -0.181700 0.908500
vn -0.561700 -0.671100 0.483900
vn -0.562300 0.040400 0.826000
vn -0.908500 -0.181700 0.376300
vn -0.739300 -0.671100 -0.055000
vn -0.981600 0.040400 0.186400
vn -0.908500 -0.181700 -0.376300
vn -0.826000 0.040400 -0.562300
vn -0.376300 -0.181700 -0.908500
vn -0.483900 -0.671100 -0.561700
vn -0.186400 0.040400 -0.981600
vn 0.376300 -0.181700 -0.908500
vn 0.054900 -0.671100 -0.739400
vn 0.000000 1.000000 -0.000000
vn 0.083300 0.814300 0.574400
vn 0.570900 0.814300 0.105000
vn -0.434600 0.814300 -0.384700
vn -0.544600 0.814300 0.200800
vn -0.229700 0.814300 0.533000
vn -0.577600 0.814300 0.056900
vn 0.273600 0.814300 0.511800
vn -0.351100 0.814300 0.462200
vn 0.459100 0.814300 0.355100
vn 0.469500 0.814300 -0.341300
vn 0.577600 0.814300 -0.056900
vn 0.119800 0.814300 -0.567900
vn 0.381000 0.814300 -0.437800
vn -0.273600 0.814300 -0.511900
vn -0.030400 0.814300 -0.579600
vn -0.538800 0.814300 -0.216000
vn 0.000000 -1.000000 -0.000000
vn 0.064600 -0.943700 -0.324600
vn 0.275100 -0.943700 0.183900
vn 0.275100 -0.943700 -0.183800
vn 0.064500 -0.943700 0.324500
vn 0.324500 -0.943700 0.064600
vn -0.183900 -0.943700 0.275100
vn 0.183800 -0.943700 0.275100
vn -0.324500 -0.943700 0.064600
vn -0.064500 -0.943700 0.324500
vn -0.275100 -0.943700 -0.183900
vn -0.275100 -0.943700 0.183800
vn -0.064500 -0.943700 -0.324500
vn -0.324500 -0.943700 -0.064600
vn 0.183800 -0.943700 -0.275100
vn -0.183900 -0.943700 -0.275100
vn 0.324600 -0.943700 -0.064500
vn 0.336200 0.721200 -0.605700
vn 0.666000 0.721200 0.190600
vn 0.942000 -0.283100 0.180000
vn 0.538800 -0.283100 -0.793400
vn 0.666000 0.721200 -0.190600
vn 0.336200 0.721200 0.605700
vn 0.538900 -0.283200 0.793400
vn 0.942000 -0.283200 -0.180000
vn -0.190600 0.721200 0.666000
vn -0.180000 -0.283100 0.942000
vn 0.793400 -0.283100 0.538800
vn 0.605700 0.721200 0.336200
vn 0.190600 0.721200 0.666000
vn -0.605700 0.721200 0.336200
vn -0.793400 -0.283200 0.538900
vn 0.180000 -0.283100 0.942000
vn -0.336200 0.721200 0.605700
vn -0.666000 0.721200 -0.190600
vn -0.942000 -0.283200 -0.180000
vn -0.538800 -0.283100 0.793400
vn -0.666000 0.721200 0.190600
vn -0.336200 0.721200 -0.605700
vn -0.538900 -0.283200 -0.793400
vn -0.942000 -0.283100 0.180000
vn 0.190600 0.721200 -0.666000
vn 0.180000 -0.283200 -0.942000
vn -0.793400 -0.283200 -0.538900
vn -0.605700 0.721200 -0.336200
vn 0.605700 0.721200 -0.336200
vn 0.793400 -0.283100 -0.538800
vn -0.180000 -0.283200 -0.942000
vn -0.190600 0.721200 -0.666000
vn 0.737000 -0.541300 -0.404900
vn 0.807400 -0.541300 -0.234800
vn 0.709500 -0.640500 -0.293900
vn 0.807400 -0.541300 0.234800
vn 0.737000 -0.541300 0.404900
vn 0.709500 -0.640500 0.293900
vn 0.234800 -0.541300 0.807400
vn 0.293900 -0.640500 0.709500
vn 0.404900 -0.541300 0.737000
vn -0.234800 -0.541300 0.807400
vn -0.404900 -0.541300 0.737000
vn -0.293900 -0.640500 0.709500
vn -0.737000 -0.541300 0.404900
vn -0.807400 -0.541300 0.234800
vn -0.709500 -0.640500 0.293900
vn -0.807400 -0.541300 -0.234800
vn -0.737000 -0.541300 -0.404900
vn -0.709500 -0.640500 -0.293900
vn -0.234800 -0.541300 -0.807400
vn -0.293900 -0.640500 -0.709500
vn -0.404900 -0.541300 -0.737000
vn 0.404900 -0.541300 -0.737000
vn 0.293900 -0.640500 -0.709500
vn 0.234800 -0.541300 -0.807400
vn 0.692100 0.662500 -0.286700
vn 0.692100 0.662500 0.286700
vn 0.286700 0.662500 0.692100
vn -0.286700 0.662500 0.692100
vn -0.692100 0.662500 0.286700
vn -0.692100 0.662500 -0.286700
vn -0.286700 0.662400 -0.692100
vn 0.286700 0.662500 -0.692100
vn -0.745800 0.590200 0.308900
vn -0.812000 -0.490800 -0.315800
vn -0.350800 -0.490700 0.797600
vn -0.745800 0.590200 -0.308900
vn -0.350900 -0.490800 -0.797500
vn -0.812000 -0.490800 0.315800
vn -0.308900 0.590200 -0.745800
vn 0.315900 -0.490700 -0.812000
vn -0.797600 -0.490700 -0.350800
vn 0.308900 0.590200 -0.745800
vn 0.797500 -0.490800 -0.350900
vn -0.315800 -0.490800 -0.812000
vn 0.745800 0.590200 -0.308900
vn 0.812000 -0.490700 0.315900
vn 0.350800 -0.490700 -0.797600
vn 0.745800 0.590200 0.308900
vn 0.350900 -0.490800 0.797500
vn 0.812000 -0.490700 -0.315900
vn 0.308900 0.590200 0.745800
vn -0.315800 -0.490800 0.812000
vn 0.797500 -0.490800 0.350900
vn -0.308900 0.590200 0.745800
vn -0.797600 -0.490700 0.350800
vn 0.315900 -0.490700 0.812000
vn -0.016900 0.860700 -0.508900
vn 0.371700 0.860700 -0.347900
vn 0.757600 -0.637500 0.140000
vn -0.634700 -0.637500 -0.436700
vn 0.347900 0.860700 -0.371800
vn 0.508800 0.860700 0.016800
vn 0.436700 -0.637500 0.634700
vn -0.139900 -0.637600 -0.757500
vn 0.508900 0.860700 -0.016900
vn 0.347900 0.860700 0.371700
vn -0.139900 -0.637600 0.757500
vn 0.436800 -0.637600 -0.634600
vn 0.371800 0.860700 0.347900
vn -0.016800 0.860700 0.508800
vn -0.634600 -0.637600 0.436700
vn 0.757600 -0.637500 -0.140000
vn 0.016900 0.860700 0.508900
vn -0.371700 0.860700 0.347900
vn -0.757600 -0.637500 -0.140000
vn 0.634700 -0.637500 0.436700
vn -0.347900 0.860700 0.371700
vn -0.508800 0.860700 -0.016800
vn -0.436700 -0.637500 -0.634700
vn 0.139900 -0.637600 0.757500
vn -0.508900 0.860700 0.016900
vn -0.347900 0.860700 -0.371700
vn 0.140000 -0.637500 -0.757600
vn -0.436800 -0.637600 0.634600
vn -0.371800 0.860700 -0.347900
vn 0.016800 0.860700 -0.508800
vn 0.634600 -0.637600 -0.436700
vn -0.757500 -0.637600 0.139900
vn 0.337300 0.831200 -0.442000
vn 0.551000 0.831200 0.074000
vn 0.728300 0.615300 -0.301700
vn 0.551100 0.831200 -0.074000
vn 0.337300 0.831200 0.442000
vn 0.728300 0.615300 0.301700
vn -0.074100 0.831200 0.551100
vn 0.301700 0.615300 0.728300
vn 0.442000 0.831200 0.337300
vn 0.074000 0.831200 0.551000
vn -0.442000 0.831200 0.337300
vn -0.301700 0.615300 0.728300
vn -0.337300 0.831200 0.442000
vn -0.551000 0.831200 -0.074000
vn -0.728300 0.615300 0.301700
vn -0.551100 0.831200 0.074100
vn -0.337300 0.831200 -0.442000
vn -0.728300 0.615300 -0.301700
vn 0.074000 0.831200 -0.551000
vn -0.301700 0.615300 -0.728300
vn -0.442000 0.831200 -0.337300
vn 0.442000 0.831200 -0.337300
vn 0.301700 0.615300 -0.728300
vn -0.074100 0.831200 -0.551100
vn 0.664800 -0.694500 -0.275400
vn 0.664800 -0.694500 0.275400
vn 0.275400 -0.694500 0.664800
vn -0.275400 -0.694500 0.664800
vn -0.664800 -0.694500 0.275400
vn -0.664800 -0.694500 -0.275400
vn -0.275400 -0.694500 -0.664800
vn 0.275400 -0.694500 -0.664800
vn -0.773800 -0.546400 0.320500
vn -0.773800 -0.546400 -0.320500
vn -0.320500 -0.546400 -0.773800
vn 0.320500 -0.546400 -0.773800
vn 0.773800 -0.546400 -0.320500
vn 0.773800 -0.546400 0.320500
vn 0.320500 -0.546400 0.773800
vn -0.320500 -0.546400 0.773800
vn -0.830600 0.437800 -0.344100
vn 0.030800 0.540200 0.841000
vn 0.616500 0.540200 -0.572900
vn -0.830600 0.437800 0.344100
vn 0.616500 0.540000 0.573000
vn 0.030700 0.540000 -0.841100
vn -0.344100 0.437800 0.830600
vn 0.841000 0.540200 -0.030800
vn -0.573000 0.540000 -0.616500
vn 0.344100 0.437800 0.830600
vn 0.572900 0.540200 -0.616500
vn -0.841100 0.540100 -0.030700
vn 0.830600 0.437800 0.344100
vn -0.030800 0.540200 -0.841000
vn -0.616500 0.540100 0.573000
vn 0.830600 0.437800 -0.344100
vn -0.616500 0.540200 -0.572900
vn -0.030800 0.540200 0.841000
vn 0.344100 0.437800 -0.830600
vn -0.841100 0.540100 0.030700
vn 0.572900 0.540100 0.616500
vn -0.344100 0.437800 -0.830600
vn -0.573000 0.540100 0.616500
vn 0.841100 0.540100 0.030700
vn 0.588300 0.677900 0.441000
vn 0.170900 0.710600 -0.682500
vn -0.843300 -0.408300 0.349300
vn 0.170900 0.710600 0.682500
vn 0.588300 0.677900 -0.441000
vn -0.843300 -0.408300 -0.349300
vn 0.740100 0.668200 -0.076300
vn -0.341300 -0.452300 -0.824000
vn -0.407400 0.763800 0.500600
vn 0.676900 0.659900 0.326100
vn 0.329400 -0.509200 -0.795200
vn -0.623400 0.770500 -0.133000
vn 0.328300 0.672300 0.663500
vn 0.774100 -0.545800 -0.320700
vn -0.242200 0.720500 -0.649800
vn -0.242100 0.720500 0.649800
vn 0.774100 -0.545800 0.320700
vn 0.328200 0.672300 -0.663500
vn -0.623400 0.770500 0.133000
vn 0.329400 -0.509200 0.795100
vn 0.676900 0.659900 -0.326100
vn -0.407400 0.763800 -0.500600
vn -0.341300 -0.452300 0.824000
vn 0.740100 0.668200 0.076300
vn -0.319100 0.551800 0.770500
vn -0.319100 0.551800 -0.770500
vn -0.797900 0.504100 -0.330500
vn -0.797900 0.504100 0.330500
vn 0.302900 0.611100 0.731300
vn 0.704000 0.647600 0.291600
vn 0.704000 0.647600 -0.291600
vn 0.302900 0.611100 -0.731300
vn 0.862800 0.357600 -0.357400
vn 0.862800 0.357600 0.357400
vn 0.351000 0.398100 0.847500
vn -0.341400 0.451800 0.824200
vn -0.806900 0.487000 0.334200
vn -0.806900 0.487000 -0.334200
vn -0.341400 0.451800 -0.824200
vn 0.351000 0.398100 -0.847500
vn 0.791800 -0.515300 0.328000
vn 0.458600 -0.770300 0.443200
vn 0.653900 -0.756000 -0.028900
vn 0.791800 -0.515300 -0.328000
vn 0.653900 -0.756000 0.028900
vn 0.458600 -0.770300 -0.443200
vn 0.316200 -0.563200 -0.763400
vn 0.493400 -0.762000 -0.419400
vn 0.029300 -0.796500 -0.603900
vn -0.299500 -0.622400 -0.723100
vn 0.049600 -0.789400 -0.611900
vn -0.391100 -0.822500 -0.413000
vn -0.695100 -0.658700 -0.287900
vn -0.380600 -0.819100 -0.429200
vn -0.554500 -0.832100 0.011300
vn -0.695100 -0.658700 0.287900
vn -0.554400 -0.832200 -0.011300
vn -0.380700 -0.819100 0.429100
vn -0.299500 -0.622400 0.723100
vn -0.391200 -0.822400 0.413100
vn 0.049500 -0.789400 0.611900
vn 0.316200 -0.563200 0.763400
vn 0.029400 -0.796400 0.604000
vn 0.493400 -0.762000 0.419400
vn 0.577500 0.147800 -0.802900
vn 0.382700 0.000000 -0.923900
vn 0.160400 0.310300 -0.937000
vn 0.160300 0.310400 0.937000
vn 0.382700 -0.000000 0.923900
vn 0.577500 0.147900 0.802900
vn 0.832900 0.226300 0.505100
vn 0.923900 -0.000000 0.382700
vn 0.960700 0.155100 0.230100
vn 0.960700 0.155000 -0.230100
vn 0.923900 0.000000 -0.382700
vn 0.832900 0.226300 -0.505000
vn -0.684000 0.292100 -0.668500
vn -0.923900 0.000000 -0.382700
vn -0.937600 0.347400 -0.012500
vn -0.937700 0.347200 0.012400
vn -0.923900 -0.000000 0.382700
vn -0.684000 0.292200 0.668400
vn -0.609700 0.355800 0.708300
vn -0.382700 -0.000000 0.923900
vn -0.067900 0.210500 0.975200
vn -0.068100 0.210400 -0.975200
vn -0.382700 0.000000 -0.923900
vn -0.609600 0.355900 -0.708400
usemtl Material.TF.514
s off
f 1/1/1 4/2/1 3/3/2 2/4/3
f 5/5/4 3/3/5 4/2/6 6/6/6
f 5/5/7 6/6/8 8/7/8 7/8/9
f 9/9/10 7/8/11 8/7/12 10/10/12
f 11/11/13 9/9/14 10/10/15 12/12/15
f 13/13/16 11/11/17 12/12/18 14/14/18
f 13/13/19 14/14/20 16/15/20 15/16/21
f 15/16/22 16/15/23 1/1/23 2/4/24
usemtl Material.TF.514_portablelights.png
f 17/17/25 19/18/25 18/17/25
f 20/19/25 17/17/25 18/17/25
f 21/20/25 20/19/25 18/17/25
f 22/19/25 21/20/25 18/17/25
f 23/17/25 22/19/25 18/17/25
f 24/18/25 23/17/25 18/17/25
f 25/21/25 24/18/25 18/17/25
f 19/18/25 25/21/25 18/17/25
f 26/22/25 27/23/25 15/24/26 2/25/27
f 5/26/28 7/27/29 29/28/25 28/29/25
f 5/26/30 28/29/25 30/30/25 3/30/31
f 3/30/32 30/30/25 26/22/25 2/25/33
f 13/25/34 15/24/35 27/23/25 31/22/25
f 11/30/36 13/25/37 31/22/25 32/30/25
f 9/26/38 11/30/39 32/30/25 33/29/25
f 7/27/40 9/26/41 33/29/25 29/28/25
f 4/31/42 1/32/42 35/33/43 34/31/44
f 6/34/42 4/31/42 34/31/45 36/35/46
f 6/34/42 36/35/47 37/36/48 8/37/42
f 10/34/42 8/37/42 37/36/49 38/35/50
f 12/31/42 10/34/42 38/35/51 39/31/52
f 14/32/42 12/31/42 39/31/53 40/33/54
f 14/32/42 40/33/55 41/38/56 16/39/42
f 16/39/42 41/38/57 35/33/58 1/32/42
f 34/31/59 35/33/60 42/40/61 43/41/62
f 36/35/63 34/31/64 43/41/65 44/42/66
f 36/35/67 44/42/68 45/43/69 37/36/70
f 38/35/71 37/36/72 45/43/73 46/42/74
f 39/31/75 38/35/76 46/42/77 47/41/78
f 40/33/79 39/31/80 47/41/81 48/40/82
f 40/33/83 48/40/84 49/44/85 41/38/86
f 41/38/87 49/44/88 42/40/89 35/33/90
f 43/41/91 42/40/92 50/45/93 51/46/93
f 44/42/94 43/41/95 51/46/96 52/47/96
f 44/42/97 52/47/98 53/48/98 45/43/99
f 46/42/100 45/43/101 53/48/102 54/47/102
f 47/41/103 46/42/104 54/47/105 55/46/105
f 48/40/106 47/41/107 55/46/108 56/45/108
f 48/40/109 56/45/110 57/49/110 49/44/111
f 49/44/112 57/49/113 50/45/113 42/40/114
f 51/46/115 50/45/115 58/50/115 59/51/115
f 52/47/116 51/46/116 59/51/116 60/52/116
f 52/47/117 60/52/117 61/53/117 53/48/117
f 54/47/118 53/48/118 61/53/118 62/52/118
f 55/46/119 54/47/119 62/52/119 63/51/119
f 56/45/120 55/46/120 63/51/120 64/50/120
f 56/45/121 64/50/121 65/54/121 57/49/121
f 57/49/122 65/54/122 58/50/122 50/45/122
f 59/51/123 58/50/123 19/18/124 17/17/125
f 60/52/126 59/51/126 17/17/127 20/19/128
f 60/52/129 20/19/130 21/20/131 61/53/129
f 62/52/132 61/53/132 21/20/133 22/19/134
f 63/51/135 62/52/135 22/19/136 23/17/137
f 64/50/138 63/51/138 23/17/139 24/18/140
f 64/50/141 24/18/142 25/21/143 65/54/141
f 65/54/144 25/21/145 19/18/146 58/50/144
f 25/21/147 19/18/148 42/40/149 49/44/150
f 19/18/151 17/17/152 43/41/153 42/40/154
f 17/17/155 20/19/156 44/42/157 43/41/158
f 20/19/159 21/20/160 45/43/161 44/42/162
f 21/20/163 22/19/164 46/42/165 45/43/166
f 22/19/167 23/17/168 47/41/169 46/42/170
f 23/17/171 24/18/172 48/40/173 47/41/174
f 24/18/175 25/21/176 49/44/177 48/40/178
f 35/33/179 34/31/180 66/55/181 67/56/181
f 34/31/182 36/35/183 68/57/184 66/55/184
f 37/36/185 69/58/186 68/57/186 36/35/187
f 37/36/188 38/35/189 70/57/190 69/58/190
f 38/35/191 39/31/192 71/55/193 70/57/193
f 39/31/194 40/33/195 72/56/196 71/55/196
f 41/38/197 73/59/198 72/56/198 40/33/199
f 35/33/200 67/56/201 73/59/201 41/38/202
f 67/56/203 66/55/203 74/60/203 75/61/203
f 66/55/204 68/57/204 76/62/204 74/60/204
f 69/58/205 77/63/205 76/62/205 68/57/205
f 69/58/206 70/57/206 78/62/206 77/63/206
f 70/57/207 71/55/207 79/60/207 78/62/207
f 71/55/208 72/56/208 80/61/208 79/60/208
f 73/59/209 81/64/209 80/61/209 72/56/209
f 67/56/210 75/61/210 81/64/210 73/59/210
f 75/61/211 74/60/211 82/55/211 83/65/211
f 74/60/212 76/62/212 84/66/212 82/55/212
f 77/63/213 85/67/213 84/66/213 76/62/213
f 77/63/214 78/62/214 86/66/214 85/67/214
f 78/62/215 79/60/215 87/55/215 86/66/215
f 79/60/216 80/61/216 88/65/216 87/55/216
f 81/64/217 89/68/217 88/65/217 80/61/217
f 75/61/218 83/65/218 89/68/218 81/64/218
f 84/66/219 36/35/220 34/31/221 82/55/219
f 82/55/222 34/31/223 35/33/224 83/65/222
f 83/65/225 35/33/226 41/38/227 89/68/225
f 89/68/228 41/38/229 40/33/230 88/65/228
f 88/65/231 40/33/232 39/31/233 87/55/231
f 87/55/234 39/31/235 38/35/236 86/66/234
f 86/66/237 38/35/238 37/36/239 85/67/237
f 85/67/240 37/36/241 36/35/242 84/66/240
f 26/22/243 30/30/244 91/69/245 90/70/245
f 30/30/246 28/29/247 92/71/248 91/69/248
f 29/28/249 93/72/250 92/71/250 28/29/251
f 33/29/252 94/71/253 93/72/253 29/28/254
f 32/30/255 95/69/256 94/71/256 33/29/257
f 31/22/258 96/70/259 95/69/259 32/30/260
f 27/23/261 97/73/262 96/70/262 31/22/263
f 26/22/264 90/70/265 97/73/265 27/23/266
f 97/73/267 90/70/267 99/74/267 98/75/267
f 92/71/268 93/72/268 101/76/268 100/77/268
f 92/71/269 100/77/269 102/78/269 91/69/269
f 91/69/270 102/78/270 99/74/270 90/70/270
f 96/70/271 97/73/271 98/75/271 103/74/271
f 95/69/272 96/70/272 103/74/272 104/78/272
f 94/71/273 95/69/273 104/78/273 105/77/273
f 93/72/274 94/71/274 105/77/274 101/76/274
f 99/74/275 102/78/275 107/79/275 106/80/275
f 102/78/276 100/77/276 108/81/276 107/79/276
f 101/76/277 109/82/277 108/81/277 100/77/277
f 105/77/278 110/81/278 109/82/278 101/76/278
f 104/78/279 111/79/279 110/81/279 105/77/279
f 103/74/280 112/80/280 111/79/280 104/78/280
f 98/75/281 113/83/281 112/80/281 103/74/281
f 99/74/282 106/80/282 113/83/282 98/75/282
f 108/81/283 28/29/284 30/30/285 107/79/283
f 107/79/286 30/30/287 26/22/288 106/80/286
f 106/80/289 26/22/290 27/23/291 113/83/289
f 113/83/292 27/23/293 31/22/294 112/80/292
f 112/80/295 31/22/296 32/30/297 111/79/295
f 111/79/298 32/30/299 33/29/300 110/81/298
f 110/81/301 33/29/302 29/28/303 109/82/301
f 109/82/304 29/28/305 28/29/306 108/81/304
f 26/22/307 115/84/308 114/85/308 27/23/309
f 29/28/310 117/86/311 116/87/311 28/29/312
f 28/29/313 116/87/314 118/88/314 30/30/315
f 30/30/316 118/88/317 115/84/317 26/22/318
f 31/22/319 120/84/320 119/88/320 32/30/321
f 32/30/322 119/88/323 121/87/323 33/29/324
f 33/29/325 121/87/326 117/86/326 29/28/327
f 27/23/328 114/85/329 120/84/329 31/22/330
f 116/87/42 123/87/42 122/88/42 118/88/42
f 121/87/42 125/87/42 124/86/42 117/86/42
f 115/84/42 127/84/42 126/85/42 114/85/42
f 120/84/42 129/84/42 128/88/42 119/88/42
f 118/88/42 122/88/42 127/84/42 115/84/42
f 114/85/42 126/85/42 129/84/42 120/84/42
f 117/86/42 124/86/42 123/87/42 116/87/42
f 119/88/42 128/88/42 125/87/42 121/87/42
f 129/84/320 131/84/320 130/88/320 128/88/320
f 123/87/314 133/87/314 132/88/314 122/88/314
f 127/84/308 135/84/308 134/85/308 126/85/308
f 126/85/329 134/85/329 131/84/329 129/84/329
f 128/88/323 130/88/323 136/87/323 125/87/323
f 122/88/317 132/88/317 135/84/317 127/84/317
f 124/86/311 137/86/311 133/87/311 123/87/311
f 125/87/326 136/87/326 137/86/326 124/86/326
f 136/87/25 139/87/25 138/86/25 137/86/25
f 131/84/25 141/84/25 140/88/25 130/88/25
f 133/87/25 143/87/25 142/88/25 132/88/25
f 135/84/25 145/84/25 144/85/25 134/85/25
f 134/85/25 144/85/25 141/84/25 131/84/25
f 130/88/25 140/88/25 139/87/25 136/87/25
f 132/88/25 142/88/25 145/84/25 135/84/25
f 137/86/25 138/86/25 143/87/25 133/87/25
f 140/88/323 147/88/323 146/87/323 139/87/323
f 142/88/317 149/88/317 148/84/317 145/84/317
f 138/86/311 151/86/311 150/87/311 143/87/311
f 139/87/326 146/87/326 151/86/326 138/86/326
f 141/84/320 152/84/320 147/88/320 140/88/320
f 143/87/314 150/87/314 149/88/314 142/88/314
f 145/84/308 148/84/308 153/85/308 144/85/308
f 144/85/329 153/85/329 152/84/329 141/84/329
